<?xml version="1.0" standalone="no"?>
<!DOCTYPE svg PUBLIC "-//W3C//DTD SVG 20010904//EN"
 "http://www.w3.org/TR/2001/REC-SVG-20010904/DTD/svg10.dtd">
<svg version="1.0" xmlns="http://www.w3.org/2000/svg"
 width="467.000000pt" height="465.000000pt" viewBox="0 0 467.000000 465.000000"
 preserveAspectRatio="xMidYMid meet">

<g transform="translate(0.000000,465.000000) scale(0.100000,-0.100000)"
fill="#0242B5" stroke="none">
<path d="M0 2325 l0 -2325 2335 0 c1550 0 2335 3 2335 10 0 7 -486 10 -1437
10 -790 0 -1433 4 -1427 8 5 5 97 36 204 70 320 100 792 246 1265 392 110 34
270 84 355 110 85 26 268 83 405 125 466 143 504 156 510 165 3 5 -11 35 -32
66 -38 58 -39 58 -56 4 -3 -10 -87 -41 -243 -89 -132 -41 -329 -102 -439 -136
-110 -35 -319 -100 -465 -145 -146 -45 -341 -106 -435 -135 -160 -50 -296 -93
-850 -265 -188 -59 -239 -71 -278 -67 -27 2 -52 8 -57 13 -6 6 -7 154 -4 374
l7 365 46 45 c55 54 -25 28 1081 355 124 37 306 91 405 120 99 30 297 88 440
130 143 42 325 96 405 120 80 24 247 73 373 110 252 75 248 73 199 141 -16 21
-118 167 -229 324 -320 455 -876 1246 -993 1410 -37 52 -165 235 -286 405
-120 171 -257 366 -306 435 l-88 125 965 3 965 2 0 25 0 25 -2335 0 -2335 0 0
-2325z m2175 2136 c-302 -76 -881 -220 -1285 -320 -493 -123 -748 -191 -775
-206 -22 -13 -49 -37 -60 -54 l-20 -31 -6 27 c-4 16 -7 184 -8 376 l-1 347
1353 -1 1352 0 -550 -138z m-2121 -1131 l13 -255 86 -162 c48 -90 126 -236
173 -325 47 -90 121 -228 164 -308 96 -180 163 -305 745 -1400 136 -256 285
-535 331 -621 46 -86 84 -164 84 -172 0 -9 12 -28 27 -42 l28 -25 -840 2 -840
3 0 1705 c0 1550 4 2082 13 1915 1 -33 9 -175 16 -315z m3378 -12 c-7 -7 -12
-41 -12 -83 0 -67 2 -74 34 -111 l35 -41 -33 -11 c-39 -14 -57 -15 -36 -2 13
8 13 14 -4 45 -20 37 -39 51 -148 109 l-68 35 38 10 c48 14 52 14 47 -2 -5
-10 90 -77 109 -77 3 0 6 23 6 50 0 39 -4 52 -17 57 -14 6 -12 9 12 19 38 17
52 17 37 2z m-284 -114 c37 -26 46 -53 26 -75 -9 -10 -15 -21 -13 -23 16 -14
133 -66 151 -67 21 -1 20 -2 -7 -14 -27 -12 -35 -10 -112 28 -45 23 -85 38
-89 34 -12 -12 47 -87 70 -88 18 0 16 -3 -9 -14 -36 -17 -69 -19 -60 -4 9 14
-106 187 -130 195 -16 6 -10 11 30 25 63 22 114 23 143 3z m-250 -131 c48 -37
106 -79 129 -93 l42 -27 -38 -12 c-47 -14 -54 -14 -46 0 9 13 -33 59 -53 59
-8 0 -32 -5 -53 -12 -30 -9 -39 -16 -39 -34 0 -12 7 -29 15 -38 20 -20 19 -23
-10 -28 -21 -4 -24 -2 -20 12 3 10 -1 61 -10 114 -16 105 -18 126 -9 126 3 0
45 -30 92 -67z m-254 10 c-3 -11 23 -59 60 -115 35 -54 60 -98 55 -98 -5 0
-67 27 -136 60 -70 32 -129 58 -131 56 -6 -7 88 -145 105 -154 13 -8 10 -11
-16 -17 -18 -4 -35 -4 -38 -1 -4 3 -1 6 5 6 22 0 11 24 -46 110 -46 69 -63 86
-87 90 -25 5 -27 7 -12 13 37 14 66 6 176 -48 62 -30 116 -55 122 -55 13 0
-80 137 -100 146 -13 5 -12 8 9 14 37 12 38 11 34 -7z m-269 -106 c112 -63
114 -201 3 -222 -57 -11 -118 12 -164 60 -88 92 -53 184 71 184 34 1 63 -7 90
-22z m-294 -36 c-18 -12 -14 -22 53 -125 35 -54 62 -86 73 -86 15 -1 16 -2 3
-9 -8 -5 -29 -12 -47 -15 -27 -6 -31 -5 -27 11 5 20 -83 167 -116 195 -19 16
-19 16 18 26 48 13 60 14 43 3z m-113 -43 c7 -7 12 -16 12 -22 0 -6 -5 -5 -12
2 -14 14 -57 16 -77 3 -21 -13 96 -195 129 -200 21 -3 18 -6 -20 -17 -57 -17
-61 -17 -54 1 4 9 -18 56 -51 111 -50 83 -59 94 -78 88 -31 -9 -47 -24 -47
-43 -1 -14 -2 -14 -11 2 -18 31 -5 41 82 63 101 26 112 27 127 12z m-228 -110
c0 -4 -15 1 -32 12 -18 11 -47 20 -64 20 -38 0 -84 -34 -84 -61 0 -28 33 -90
64 -118 49 -46 176 -36 176 14 0 7 4 16 9 19 22 14 -7 -49 -31 -67 -32 -24
-122 -26 -164 -4 -85 44 -120 142 -70 192 27 27 82 45 120 38 18 -4 26 -1 26
8 1 14 50 -39 50 -53z m-314 -30 c0 -7 24 -55 54 -105 45 -78 59 -93 80 -94
23 0 23 -1 5 -8 -42 -17 -88 -24 -80 -12 7 12 -96 194 -117 207 -8 5 -5 10 8
15 30 12 52 10 50 -3z m-128 -62 c44 -23 82 -70 88 -108 11 -66 -44 -104 -202
-138 0 0 0 8 0 18 1 9 -21 56 -49 104 -39 69 -55 88 -75 90 -36 5 113 46 168
47 24 1 55 -5 70 -13z"/>
<path d="M3035 3190 c-7 -11 43 -90 57 -90 22 0 48 22 48 40 0 11 -9 29 -20
40 -21 21 -74 27 -85 10z"/>
<path d="M2829 3038 c3 -24 9 -42 14 -42 46 8 67 15 67 22 0 9 -70 62 -81 62
-3 0 -3 -19 0 -42z"/>
<path d="M2237 2979 c-37 -14 -43 -48 -19 -95 49 -95 144 -142 192 -94 26 26
22 57 -18 114 -48 69 -101 95 -155 75z"/>
<path d="M1137 2678 c-14 -12 -10 -22 38 -103 30 -49 59 -91 65 -93 19 -7 80
20 90 38 25 47 0 114 -56 151 -33 22 -112 26 -137 7z"/>
</g>
</svg>
